<?xml version="1.0" encoding="utf-8"?>
<!-- Generator: Adobe Illustrator 26.3.1, SVG Export Plug-In . SVG Version: 6.00 Build 0)  -->
<svg version="1.1" id="Layer_1" xmlns="http://www.w3.org/2000/svg" xmlns:xlink="http://www.w3.org/1999/xlink" x="0px" y="0px"
	 viewBox="0 0 199.3 87.6" style="enable-background:new 0 0 199.3 87.6;" xml:space="preserve">
<style type="text/css">
	.st0{fill:#747374;}
	.st1{fill:#747474;}
	.st2{fill:#F2AA46;}
</style>
<g>
	<g>
		<path class="st0" d="M79.2,38.2c-5.4,0-9.8-3.8-9.8-9.6c0-5.8,4.4-9.7,9.8-9.7c5.4,0,9.9,3.9,9.9,9.7
			C89.1,34.4,84.7,38.2,79.2,38.2z M79.2,24c-2.2,0-4.1,1.8-4.1,4.6c0,2.8,1.9,4.6,4.1,4.6c2.2,0,4.1-1.8,4.1-4.6
			C83.3,25.8,81.4,24,79.2,24z"/>
		<path class="st0" d="M103.1,25.8c-0.3-0.2-1.1-0.4-1.7-0.4c-1.9,0-3.6,1-3.6,3.9v8.4h-5.9V19.5h5.8v4h0c0.6-2.8,2.7-4.3,5.1-4.3
			c0.6,0,1.3,0.1,1.7,0.2L103.1,25.8z"/>
		<path class="st0" d="M104.6,32.4c0-3.5,2.6-5.6,6.2-5.9l3.7-0.4v-0.8c0-1.2-0.9-2-2.9-2c-1.8,0-3.8,0.6-5.1,1.4l-1-4.2
			c1.5-1,4.2-1.6,6.8-1.6c4.6,0,7.6,2.2,7.6,6.6v4.7c0,1.9,0.8,3.6,2.2,4.6v0.4l-4,2.9c-0.9-0.4-1.7-1.2-2.2-2.4
			c-1,1.5-2.8,2.5-5.2,2.5C107,38.2,104.6,35.7,104.6,32.4z M111.7,34.1c1.5,0,2.7-1.2,2.7-2.9v-1.4l-2.3,0.2
			c-1.6,0.1-2.3,1-2.3,2.1C109.8,33.3,110.5,34.1,111.7,34.1z"/>
		<path class="st0" d="M135.2,37.7V26.5c0-1.3-0.9-2.5-2.7-2.5c-1.7,0-2.8,1.1-2.8,2.6v11h-5.9V19.5h5.4V22h0.1c0.7-1.9,2.6-3,5.5-3
			c4,0,6.4,2.2,6.4,6v12.6H135.2z"/>
		<path class="st0" d="M152.5,46.9c-5.2,0-8.7-2.7-8.7-6.7c0-2.8,2-4.5,3.8-5l-2.3-2.2c0.2-1.2,1.2-2.2,2.2-2.6
			c-1.4-0.8-2.7-2.6-2.7-4.9c0-3.8,2.8-6.5,7.4-6.5c1.7,0,3,0.4,4.1,0.9c1.5,0.1,3-0.4,4-0.8l0.7,4.4c-0.5,0.2-1.2,0.4-2,0.5
			c0.2,0.3,0.5,1.2,0.5,1.9c0,3-2.4,5.6-6,5.8c-0.8,0-1.4,0.2-1.4,0.8c0,0.3,0.2,0.5,0.5,0.6l3.1,1c3.5,1.2,5.3,3.1,5.3,6.2
			C161.1,44.1,157.8,46.9,152.5,46.9z M153.9,38.3l-2.3-0.6c-1.5,0.1-2.6,1.1-2.6,2.4s1.2,2.6,3.4,2.6c2.2,0,3.4-1.1,3.4-2.2
			C155.8,39.5,155.1,38.7,153.9,38.3z M152.3,23.1c-1.4,0-2.5,1.1-2.5,2.3c0,1.3,1.1,2.3,2.5,2.3c1.3,0,2.4-1,2.4-2.3
			C154.7,24.1,153.7,23.1,152.3,23.1z"/>
		<path class="st0" d="M162.3,28.5c0-5.9,4.3-9.6,9.4-9.6s8.2,3.4,8.2,7.4c0,0.8-0.1,1.4-0.2,1.9l-2.5,1.8h-9.4
			c0.6,2.2,2.5,3.4,5.7,3.4c2.3,0,4-0.5,5.2-1.3l-0.6,4.9c-1.4,0.6-3.2,1-5.6,1C166.7,38.2,162.3,34.4,162.3,28.5z M168,26.3h6.5
			v-0.4c0-1.3-1.1-2.7-2.8-2.7C170.3,23.2,168.7,24,168,26.3z"/>
	</g>
	<g>
		<path class="st1" d="M84.3,69.4c-4.5,0-6.7-2.7-6.7-6.8V40.9h5.8V62c0,1.4,0.6,2.4,2.1,2.6L84.3,69.4z"/>
		<path class="st1" d="M91.1,49.5c-1,0-3.1-2-3.1-3.1c0-1,2.1-3,3.1-3c1,0,3.1,2.1,3.1,3C94.1,47.5,92.1,49.5,91.1,49.5z M88.1,69.3
			V51.2h6v18.1H88.1z"/>
		<path class="st1" d="M109.9,56.1h-5v6.3c0,1.7,0.8,2.4,2.4,2.4c0.5,0,0.9,0,1.5-0.2l-0.5,4.5c-0.6,0.3-1.6,0.5-2.7,0.5
			c-4.1,0-6.5-2.2-6.5-5.8v-7.7h-2.8v-4.9h2.8v-3.9l5.8-2.1v6h6.1L109.9,56.1z"/>
		<path class="st1" d="M111.6,60.2c0-5.9,4.3-9.6,9.4-9.6s8.2,3.4,8.2,7.4c0,0.8-0.1,1.4-0.2,1.9l-2.5,1.8h-9.4
			c0.6,2.2,2.5,3.4,5.7,3.4c2.3,0,4-0.5,5.2-1.3l-0.6,4.9c-1.4,0.6-3.2,1-5.6,1C116.1,69.9,111.6,66.1,111.6,60.2z M117.3,58h6.5
			v-0.4c0-1.3-1.1-2.7-2.8-2.7C119.6,54.9,118,55.7,117.3,58z"/>
		<path class="st1" d="M143.2,57.5c-0.3-0.2-1.1-0.4-1.7-0.4c-1.9,0-3.6,1-3.6,3.9v8.4H132V51.2h5.8v4h0c0.6-2.8,2.7-4.3,5.1-4.3
			c0.6,0,1.3,0.1,1.7,0.2L143.2,57.5z"/>
		<path class="st1" d="M144.7,64.1c0-3.5,2.6-5.6,6.2-5.9l3.7-0.4v-0.8c0-1.2-0.9-2-2.9-2c-1.8,0-3.8,0.6-5.1,1.4l-1-4.2
			c1.5-1,4.2-1.6,6.8-1.6c4.6,0,7.6,2.2,7.6,6.6v4.7c0,1.9,0.8,3.6,2.2,4.6v0.4l-4,2.9c-0.9-0.4-1.7-1.2-2.2-2.4
			c-1,1.5-2.8,2.5-5.2,2.5C147.1,69.9,144.7,67.3,144.7,64.1z M151.8,65.8c1.5,0,2.7-1.2,2.7-2.9v-1.4l-2.3,0.2
			c-1.6,0.1-2.3,1-2.3,2.1C149.9,64.9,150.6,65.8,151.8,65.8z"/>
		<path class="st1" d="M177.7,57c-1.2-0.8-2.4-1.2-3.9-1.2c-2.6,0-4.6,1.9-4.6,4.4c0,2.7,2,4.6,4.9,4.6c1.4,0,2.6-0.3,3.8-1l-0.5,5
			c-1.1,0.6-2.7,0.9-4.2,0.9c-5.5,0-10-3.6-10-9.4c0-5.9,4.8-9.4,9.7-9.4c2.4,0,4.3,0.4,5.9,1.4L177.7,57z"/>
		<path class="st1" d="M191.8,68.5c-2.4,6.2-5.4,9.2-8.5,10.3l-3.6-3.6c2.7-1.1,5-3.3,6.4-7.1l-6.5-16.9h5.7l2.6,7
			c0.4,1,0.8,2.3,1.1,3.6h0.1c0.4-1.2,0.8-2.5,1.2-3.5l2.6-7.1h5.4L191.8,68.5z"/>
	</g>
	<g>
		<path class="st2" d="M4,66.4C4,66.2,3.9,66,3.8,65.8c-0.3-0.7-0.6-1.4-0.8-2.1c-0.4-1.4-1-2.8-1.3-4.3c-0.1-0.7-0.3-1.4-0.4-2.1
			c-0.1-0.7-0.2-1.4-0.3-2.1c0-0.7-0.1-1.4-0.1-2.1c0-0.7,0-1.4,0-2.1c0-0.7,0.1-1.4,0.1-2.1c0.1-0.7,0.1-1.4,0.2-2.1
			c0.1-0.7,0.2-1.4,0.4-2.1c0.4-1.4,0.7-2.8,1.1-4.2c0.3-0.7,0.5-1.4,0.8-2.1c0.7-1.4,1.3-2.8,2-4.2c1-1.4,1.9-2.8,2.9-4.3
			c0.6-0.7,1.2-1.4,1.9-2.1c0.1-0.1,0.2-0.2,0.3-0.3c0.7-0.6,1.4-1.2,2-1.9c0.1,0,0.2-0.1,0.2-0.2c1.4-1,2.8-2,4.2-3
			c0.6-0.4,1.2-0.7,1.8-1.1c0.1-0.1,0.2-0.1,0.3-0.2c0.7-0.3,1.4-0.7,2.1-1c0.7-0.2,1.3-0.5,2-0.9c0,0,0.1,0,0.1-0.1
			c0.7-0.2,1.5-0.5,2.1-0.8c0.7,0,0.2,0.6,0.5,0.9c0,0.7,0,1.4,0,2.1c-0.1,0.7-0.1,1.4,0,2.1c-0.1,0.7-0.1,1.4,0,2.1
			c-0.1,0.7,0,1.4-0.1,2.1c-0.1,0.2-0.3,0.3-0.4,0.5c-1.5,0.7-2.9,1.6-4.2,2.7c-0.5,0.3-0.9,0.6-1.2,1c-0.4,0.2-0.6,0.5-0.9,0.8
			c-0.5,0.4-0.9,0.8-1.3,1.3c-0.3,0.3-0.6,0.6-0.9,1c-0.3,0.3-0.6,0.7-0.8,1.1c-0.6,0.6-1,1.3-1.3,2.1c-0.5,0.7-0.8,1.4-1.1,2.1
			c-0.4,0.7-0.6,1.4-0.8,2.1c-0.1,0.2-0.2,0.4-0.2,0.7c-0.2,0.5-0.3,0.9-0.4,1.5c-0.2,0.7-0.4,1.4-0.4,2.1c-0.2,0.7-0.2,1.4-0.3,2.1
			c-0.2,0.7-0.1,1.4-0.1,2.1c-0.1,0.7,0,1.4,0.1,2.1c0,0.7,0,1.4,0.2,2.1c0,0.7,0.1,1.4,0.3,2.1c0.2,1.5,0.5,2.9,1.2,4.3
			c0.4,1.6,1.3,2.9,2.1,4.2c0.5,1,1.2,1.8,1.9,2.7c1.7,2.1,3.7,3.9,6,5.3c1.3,0.9,2.7,1.6,4.2,2.1c1.3,0.7,2.8,1,4.3,1.2
			c0.7,0.2,1.4,0.3,2.1,0.3c0.7,0.2,1.4,0.2,2.1,0.1c0.7,0.1,1.4,0.1,2.1,0c0.7,0,1.4,0,2.1-0.2c1.5-0.1,2.9-0.5,4.3-1
			c0.7-0.2,1.4-0.4,2.1-0.8c1.5-0.6,2.9-1.3,4.2-2.3c0.6-0.2,1-0.6,1.5-1.1c0.3-0.1,0.5-0.3,0.7-0.6c0.6-0.5,1.2-0.9,1.6-1.5
			c0.2-0.1,0.4-0.3,0.5-0.5c0.5-0.4,1-1,1.4-1.6c1.1-1.3,2-2.7,2.7-4.3c0.1-0.1,0.2-0.2,0.2-0.4c0.3-0.5,0.6-1.1,0.8-1.7
			c0.3-0.7,0.6-1.4,0.7-2.1c0.3-0.7,0.4-1.4,0.5-2.1c0.3-1.1,0.5-2.3,0.5-3.5c0.1-1.7,0.1-3.3-0.2-5c0-0.7,0-1.4-0.3-2
			c0,0,0-0.1,0-0.1c0-0.7-0.1-1.4-0.4-2.1c-0.1-0.7-0.3-1.5-0.6-2.1c-0.4-1.5-1.1-2.9-1.9-4.3c-1.8-3.5-4.5-6.2-7.7-8.3
			c-0.1,0-0.1-0.1-0.2-0.1c-0.6-0.5-1.3-0.9-2-1.2c-0.3-0.3-0.8-0.4-0.8-0.9c0-0.7,0-1.4,0-2.1c0.1-0.7,0.1-1.4,0-2.1
			c0-0.7,0-1.4,0-2.1c0.1-0.7,0.1-1.4,0-2.1c0.1-0.8,0.1-0.8,0.8-0.6c1.4,0.6,2.8,1.2,4.3,1.9c1.4,0.8,2.8,1.7,4.2,2.5
			c0.2,0.2,0.4,0.4,0.7,0.5c0.4,0.4,0.9,0.8,1.4,1.1c0.4,0.4,0.9,0.7,1.3,1.1c0.2,0.3,0.5,0.6,0.8,0.8c1.2,1.1,2.2,2.3,3.3,3.5
			c0.2,0.4,0.6,0.8,0.9,1.2c0.2,0.3,0.5,0.6,0.7,0.9c0.4,0.7,0.9,1.5,1.4,2.1l0,0c0.4,0.7,0.7,1.4,1.1,2.1c0.6,1.4,1.2,2.8,1.7,4.2
			c0.2,0.7,0.4,1.4,0.6,2.1c0.3,1.4,0.5,2.8,0.8,4.2c0.1,0.7,0,1.4,0.2,2.1c0,0.7,0,1.4,0,2.1c0,0.7,0,1.4,0,2.1
			c-0.2,0.7-0.1,1.4-0.2,2.1c-0.2,1.4-0.4,2.8-0.7,4.3c-0.2,0.7-0.4,1.4-0.5,2.1c-0.2,0.7-0.5,1.4-0.7,2.1c-0.6,1.4-1.2,2.8-1.9,4.2
			c-0.3,0.3-0.4,0.6-0.5,1c-0.3,0.3-0.5,0.7-0.7,1.1c-0.5,0.7-1,1.4-1.4,2.1c0,0-0.1,0.1-0.1,0.1c-0.5,0.7-1.1,1.3-1.6,2
			c-0.2,0.2-0.4,0.3-0.5,0.6c-0.5,0.5-1.1,1-1.5,1.6c-0.2,0.2-0.4,0.4-0.6,0.6c-0.6,0.5-1.2,1-1.7,1.5c-0.1,0.1-0.3,0.2-0.4,0.3
			c-1.4,1-2.8,1.9-4.2,2.9c-0.7,0.3-1.4,0.6-2,1.1c0,0-0.1,0-0.1,0.1c-0.7,0.3-1.4,0.6-2.1,1c-1.4,0.5-2.8,1-4.2,1.4
			c-0.7,0.1-1.4,0.3-2.1,0.5c-0.7,0.1-1.4,0.2-2.1,0.4c-0.7,0.1-1.4,0.2-2.1,0.2c-0.7,0-1.4,0-2.1,0.1c-0.7,0-1.4,0-2.1,0
			c-0.7,0-1.4-0.2-2.2-0.1c-0.7-0.1-1.4-0.2-2.1-0.2c-0.7-0.2-1.4-0.2-2.1-0.3c-0.7-0.2-1.4-0.4-2.1-0.5c-1.4-0.4-2.8-0.9-4.2-1.3
			c-0.7-0.4-1.4-0.7-2.1-0.9c-0.3-0.1-0.6-0.3-0.8-0.4c-0.4-0.3-0.8-0.5-1.3-0.7c-0.7-0.4-1.4-0.8-2.1-1.2c-0.1-0.1-0.2-0.2-0.4-0.2
			c-0.5-0.5-1.2-0.9-1.7-1.3c-0.4-0.3-0.7-0.6-1.1-0.8c-0.3-0.4-0.7-0.6-1.1-0.9c-0.4-0.4-0.9-0.8-1.3-1.2c-0.2-0.3-0.5-0.6-0.8-0.8
			c-0.4-0.5-0.8-0.9-1.3-1.4c-0.2-0.4-0.5-0.8-0.8-1c-0.2-0.4-0.5-0.7-0.8-1.1c-0.4-0.7-0.9-1.3-1.3-2c0-0.1-0.1-0.1-0.1-0.2
			c-0.4-0.7-0.8-1.4-1.2-2.1C4.6,67.3,4.4,66.8,4,66.4z"/>
		<path class="st2" d="M32,1.1c0.6-0.3,1.2,0,1.8-0.2c0.7,0.1,1.4,0.1,2.1,0c0.7,0.1,1.4,0.1,2.1,0c0.7,0.1,1.4,0.1,2.1,0
			c0.1,0,0.1,0,0.2,0C41.5,1,41.5,1,41.7,2.1c-0.1,0.7-0.1,1.4,0,2.1c-0.1,0.7-0.1,1.4,0,2.1c-0.1,0.7-0.1,1.4,0,2.1
			c-0.1,0.7-0.1,1.4,0,2.1c-0.1,0.7-0.1,1.4,0,2.1c-0.1,0.7-0.1,1.4,0,2.1c-0.1,0.7-0.1,1.4,0,2.2c-0.1,0.7-0.1,1.4,0,2.1
			c-0.1,0.7-0.1,1.4,0,2.1c-0.1,0.7-0.1,1.4,0,2.1c-0.1,0.7-0.1,1.4,0,2.1c-0.1,0.7-0.1,1.4,0,2.1c-0.1,0.7-0.1,1.4,0,2.1
			c-0.1,0.7-0.1,1.4,0,2.1c-0.1,0.7-0.1,1.4,0,2.2c-0.1,0.7-0.1,1.4,0,2.1c-0.1,0.7-0.1,1.4,0,2.2c-0.1,0.7-0.1,1.4,0,2.1
			c-0.1,0.7-0.1,1.4,0,2.1c-0.1,0.7-0.1,1.4,0,2.1c-0.1,0.7-0.1,1.4,0,2.1c-0.1,0.7-0.1,1.4,0,2.1c-0.1,0.7-0.1,1.4,0.2,2.1
			c-0.1,0.5,0.1,0.9,0.4,1.3c0,0.3,0.1,0.6,0.3,0.8c0.4,0.9,0.9,1.5,1.8,2c0.1,0,0.1,0.1,0.2,0.1c0.6,0.4,1.2,0.8,2,0.8
			c0.7,0.3,1.4,0.3,2.1,0.3c0.5,0.1,0.7,0.4,0.6,0.9c-0.4,0.6-0.6,1.2-0.9,1.8c-0.4,0.8-0.9,1.6-1.2,2.4c-0.5,0.7-0.8,1.6-1.2,2.4
			c-0.4,0.6-0.8,1-1.6,1c-0.7-0.1-1.4-0.3-2.1-0.4c-0.7-0.3-1.4-0.5-2.1-0.8c0,0,0,0-0.1,0c-0.7-0.4-1.4-0.9-2-1.3
			c-0.3-0.3-0.6-0.6-1-0.8c-0.3-0.4-0.7-0.8-1.2-1.2c-0.3-0.3-0.5-0.6-0.8-0.9c-0.5-0.7-0.9-1.4-1.4-2.1c-0.3-0.7-0.6-1.4-1-2.1
			c-0.2-0.7-0.4-1.4-0.5-2.2c-0.4-2.1-0.3-4.2-0.3-6.3c0-7.8,0-15.6,0-23.4C32,15.9,32,8.5,32,1.1z"/>
	</g>
	<g>
		<path class="st2" d="M77.4,80v-5.1h1.2V79h1.9v1H77.4z"/>
		<path class="st2" d="M82.2,74.9h2.9v1h-1.7v1h1.4v1h-1.4v1h2v1h-3.2V74.9z"/>
		<path class="st2" d="M88.7,74.9h0.8l2,5.1h-1.2l-0.4-1.2h-1.7L87.8,80h-1.2L88.7,74.9z M88.6,78h1l-0.3-1
			c-0.1-0.1-0.1-0.3-0.1-0.5h0c0,0.2-0.1,0.3-0.1,0.5L88.6,78z"/>
		<path class="st2" d="M95.8,80L94.6,78h-0.4V80H93v-5.1h1.9c0.9,0,1.6,0.6,1.6,1.6c0,0.6-0.3,1-0.7,1.2l1.4,2.3H95.8z M94.7,76
			h-0.5v1.1h0.5c0.3,0,0.6-0.2,0.6-0.6C95.3,76.1,95,76,94.7,76z"/>
		<path class="st2" d="M102.9,80.1l-2-2.2c-0.3-0.4-0.7-0.8-1-1.1l0,0c0,0.4,0,0.8,0,1.1V80h-1.2v-5.1h1l1.8,1.9
			c0.3,0.3,0.6,0.7,0.8,1l0,0c0-0.3,0-0.6,0-1v-1.9h1.2v5.2H102.9z"/>
		<path class="st2" d="M105.5,80v-5.1h1.2V80H105.5z"/>
		<path class="st2" d="M112.9,80.1l-2-2.2c-0.3-0.4-0.7-0.8-1-1.1l0,0c0,0.4,0,0.8,0,1.1V80h-1.2v-5.1h1l1.8,1.9
			c0.3,0.3,0.6,0.7,0.8,1l0,0c0-0.3,0-0.6,0-1v-1.9h1.2v5.2H112.9z"/>
		<path class="st2" d="M118.2,80.2c-1.4,0-2.8-0.9-2.8-2.7c0-1.8,1.5-2.7,2.8-2.7c0.7,0,1.3,0.2,1.7,0.4l-0.2,1
			c-0.3-0.2-0.8-0.4-1.3-0.4c-0.9,0-1.7,0.6-1.7,1.6c0,1,0.7,1.6,1.6,1.6c0.3,0,0.5,0,0.7-0.2v-0.8H118v-1h2v2.4
			C119.6,80,119,80.2,118.2,80.2z"/>
		<path class="st2" d="M124.9,74.9h2.9v1h-1.7v1h1.4v1h-1.4v1h2v1h-3.2V74.9z"/>
		<path class="st2" d="M134.6,80l-0.2-1.9c0-0.3,0-0.6,0-0.9h0c-0.1,0.3-0.3,0.7-0.4,1l-1,1.9h-0.5l-1-1.9c-0.2-0.3-0.3-0.6-0.4-1h0
			c0,0.3,0,0.7,0,0.9l-0.2,1.9h-1.2l0.4-5.1h1l1.1,2.1c0.2,0.3,0.4,0.8,0.5,1.1h0c0.1-0.3,0.3-0.8,0.5-1.1l1.1-2.1h1l0.5,5.1H134.6z
			"/>
		<path class="st2" d="M139.5,78h-0.8v2h-1.2v-5.1h1.9c0.9,0,1.6,0.6,1.6,1.6C141.2,77.5,140.4,78,139.5,78z M139.3,76h-0.6v1.1h0.6
			c0.3,0,0.6-0.2,0.6-0.6C140,76.1,139.7,76,139.3,76z"/>
		<path class="st2" d="M145.5,80.2c-1.4,0-2.8-1-2.8-2.7c0-1.6,1.3-2.7,2.8-2.7c1.4,0,2.7,1,2.7,2.7
			C148.2,79.1,146.9,80.2,145.5,80.2z M145.5,75.9c-0.8,0-1.5,0.6-1.5,1.6c0,1,0.7,1.6,1.5,1.6c0.8,0,1.5-0.6,1.5-1.6
			C147,76.6,146.2,75.9,145.5,75.9z"/>
		<path class="st2" d="M154.9,80.1h-0.8l-0.7-2.3c-0.1-0.3-0.2-0.7-0.3-1.1h0c-0.1,0.4-0.2,0.8-0.3,1.1l-0.8,2.3h-0.8l-1.7-5.1h1.2
			l0.7,2.1c0.1,0.3,0.2,0.6,0.3,1h0c0.1-0.4,0.2-0.7,0.3-1l0.7-2.1h1.1l0.7,2.1c0.1,0.3,0.2,0.7,0.3,1h0c0.1-0.4,0.2-0.7,0.3-1
			l0.7-2.1h1.1L154.9,80.1z"/>
		<path class="st2" d="M158.1,74.9h2.9v1h-1.7v1h1.4v1h-1.4v1h2v1h-3.2V74.9z"/>
		<path class="st2" d="M165.8,80l-1.2-2.1h-0.4V80h-1.2v-5.1h1.9c0.9,0,1.6,0.6,1.6,1.6c0,0.6-0.3,1-0.7,1.2l1.4,2.3H165.8z
			 M164.7,76h-0.5v1.1h0.5c0.3,0,0.6-0.2,0.6-0.6C165.4,76.1,165.1,76,164.7,76z"/>
		<path class="st2" d="M170.2,80.1c-0.6,0-1.1-0.2-1.4-0.4l-0.1-1.2c0.4,0.3,1,0.5,1.5,0.5c0.4,0,0.7-0.1,0.7-0.5
			c0-0.8-2.1-0.3-2.1-2.2c0-0.9,0.6-1.5,1.7-1.5c0.6,0,1.1,0.2,1.3,0.3l-0.2,1c-0.2-0.1-0.6-0.3-1-0.3c-0.4,0-0.6,0.2-0.6,0.4
			c0,0.8,2.2,0.3,2.2,2.2C172.1,79.5,171.5,80.1,170.2,80.1z"/>
	</g>
</g>
</svg>
