<?xml version="1.0" encoding="utf-8"?>
<!-- Generator: Adobe Illustrator 26.3.1, SVG Export Plug-In . SVG Version: 6.00 Build 0)  -->
<svg version="1.1" id="Layer_1" xmlns="http://www.w3.org/2000/svg" xmlns:xlink="http://www.w3.org/1999/xlink" x="0px" y="0px"
	 viewBox="0 0 368 368" style="enable-background:new 0 0 368 368;" xml:space="preserve">
<style type="text/css">
	.st0{fill:#F2AA46;}
</style>
<g>
	<path class="st0" d="M61.6,269.4c-0.3-0.7-0.7-1.5-1-2.2c-1-2.7-2.1-5.3-3.1-8c-1.6-5.3-3.8-10.5-4.9-16c-0.5-2.7-1-5.3-1.5-8
		c-0.4-2.7-0.7-5.4-1.1-8c-0.2-2.7-0.3-5.3-0.5-8c0-2.7,0-5.4-0.1-8c0.1-2.7,0.3-5.3,0.4-8c0.3-2.7,0.5-5.3,0.8-8
		c0.5-2.7,0.9-5.3,1.4-8c1.4-5.3,2.8-10.6,4.2-15.9c1-2.7,2-5.4,2.9-8c2.5-5.3,5.1-10.6,7.6-15.9c3.6-5.4,7.2-10.7,10.8-16.1
		c2.4-2.7,4.7-5.3,7.1-8c0.3-0.3,0.7-0.7,1-1c2.7-2.1,5.2-4.4,7.4-7c0.5-0.1,0.6-0.4,0.7-0.9c5.3-3.7,10.6-7.4,15.9-11.1
		c2.3-1.3,4.6-2.7,6.9-4c0.4-0.3,0.8-0.5,1.2-0.8c2.6-1.3,5.3-2.6,7.9-3.8c2.6-0.9,5.1-2,7.5-3.3c0.2-0.1,0.4-0.1,0.5-0.2
		c2.8-0.8,5.5-1.8,8-3.2c2.8,0,0.9,2.4,1.9,3.4c0,2.7,0,5.3,0,8c-0.5,2.7-0.4,5.4-0.1,8.1c-0.4,2.6-0.4,5.3,0,7.9
		c-0.5,2.7-0.1,5.4-0.2,8c-0.5,0.6-1.1,1.2-1.6,1.8c-5.8,2.7-11.1,6-15.9,10.2c-1.8,1-3.3,2.4-4.7,3.9c-1.4,0.7-2.4,1.9-3.3,3.1
		c-1.8,1.4-3.5,2.9-4.7,4.9c-1.3,1.2-2.4,2.4-3.3,3.9c-1.3,1.2-2.2,2.6-3,4.1c-2.2,2.3-3.7,5.1-5.1,7.9c-1.8,2.5-2.9,5.2-4,8
		c-1.4,2.6-2.3,5.3-3.1,8c-0.5,0.8-0.9,1.6-0.8,2.6c-0.8,1.7-1.2,3.6-1.5,5.5c-0.9,2.6-1.4,5.2-1.6,7.9c-0.9,2.6-0.9,5.3-1,8
		c-0.8,2.6-0.4,5.3-0.4,8c-0.2,2.7-0.2,5.3,0.2,7.9c-0.1,2.7,0.2,5.4,0.8,8c-0.1,2.7,0.5,5.3,1.1,8c0.8,5.5,2.1,10.9,4.4,16
		c1.6,5.9,4.8,10.9,8,16c1.9,3.7,4.5,6.9,7.2,10.1c6.5,7.9,13.9,14.7,22.8,19.9c5,3.4,10.4,5.9,16,8c5.1,2.5,10.5,3.7,16,4.7
		c2.6,0.7,5.2,1.2,7.9,1.1c2.6,0.8,5.3,0.6,8,0.5c2.6,0.3,5.3,0.2,7.9,0c2.7,0.2,5.4-0.2,8-0.9c5.6-0.3,10.9-1.9,16.1-3.8
		c2.8-0.6,5.4-1.6,7.9-2.9c5.7-2.3,11.1-5.1,15.9-8.8c2.1-0.9,3.9-2.4,5.5-4c1-0.5,1.9-1.1,2.5-2.1c2.3-1.7,4.4-3.6,6.2-5.8
		c0.8-0.5,1.4-1.2,1.9-2c2-1.7,3.7-3.7,5.1-6c4-5,7.6-10.2,10.1-16c0.4-0.4,0.8-0.9,0.7-1.6c1.3-2,2.4-4.1,2.9-6.4
		c1.2-2.5,2.2-5.2,2.7-7.9c1-2.6,1.7-5.3,2-8c1.3-4.3,1.7-8.8,2.1-13.3c0.4-6.3,0.5-12.5-0.6-18.8c0.1-2.6-0.1-5.1-1-7.6
		c0.1-0.1,0.1-0.3,0-0.4c-0.2-2.7-0.6-5.4-1.6-8c-0.6-2.7-1-5.5-2.3-8c-1.5-5.7-4-11-7.1-16c-6.8-13.1-16.9-23.3-29.1-31.4
		c-0.2-0.2-0.4-0.3-0.6-0.5c-2.3-1.8-4.8-3.3-7.4-4.6c-1-1.1-2.9-1.5-3.1-3.4c0-2.7,0-5.4,0-8c0.2-2.7,0.2-5.3,0-8c0-2.7,0-5.4,0-8
		c0.2-2.7,0.2-5.3,0-8c0.2-3.2,0.2-3.2,3-2.4c5.3,2.3,10.7,4.7,16,7c5.3,3.1,10.7,6.3,16,9.4c0.7,0.8,1.6,1.4,2.6,1.9
		c1.7,1.5,3.4,2.9,5.4,4c1.7,1.3,3.3,2.7,5,4c0.9,1.1,1.8,2.1,3.1,2.8c4.5,4.1,8.4,8.7,12.5,13.1c0.9,1.7,2.2,3.1,3.5,4.4
		c0.9,1.2,1.7,2.4,2.6,3.5c1.6,2.8,3.3,5.5,5.3,8.1l0,0c1.4,2.7,2.8,5.3,4.2,8c2.2,5.3,4.4,10.6,6.5,15.9c0.8,2.7,1.6,5.4,2.4,8.1
		c1,5.3,2,10.6,3,15.9c0.4,2.7,0.2,5.4,0.9,8c0,2.7,0.1,5.3,0.1,8c0,2.7-0.1,5.3-0.1,8c-0.7,2.6-0.5,5.3-0.8,8
		c-0.8,5.4-1.7,10.7-2.5,16.1c-0.7,2.6-1.4,5.3-2,7.9c-0.9,2.7-1.7,5.4-2.6,8.1c-2.3,5.3-4.7,10.6-7,16c-1,1.1-1.6,2.4-2.1,3.7
		c-1.1,1.3-2,2.6-2.5,4.3c-1.8,2.6-3.7,5.1-5.2,7.9c-0.1,0.2-0.3,0.3-0.4,0.5c-2,2.5-4,5-6.1,7.5c-0.8,0.6-1.4,1.3-1.9,2.1
		c-2,1.8-4,3.7-5.6,5.9c-0.8,0.7-1.6,1.5-2.4,2.2c-2.2,1.9-4.4,3.9-6.6,5.8c-0.5,0.4-0.9,0.7-1.4,1.1c-5.3,3.6-10.7,7.3-16,10.9
		c-2.6,1.1-5.1,2.4-7.5,4c-0.2,0.1-0.4,0.2-0.6,0.3c-2.7,1.1-5.5,2.1-8,3.6c-5.3,1.8-10.6,3.6-16,5.4c-2.7,0.5-5.4,1-7.9,1.9
		c-2.7,0.3-5.4,0.8-8.1,1.5c-2.6,0.3-5.3,0.6-7.9,0.9c-2.7-0.1-5.4,0-8.1,0.5c-2.6,0-5.3,0.1-7.9,0.1c-2.7-0.2-5.4-0.8-8.1-0.4
		c-2.6-0.5-5.2-0.9-7.9-0.9c-2.6-0.7-5.4-0.9-8.1-1.3c-2.6-0.8-5.2-1.4-7.9-1.8c-5.3-1.6-10.7-3.3-16-4.9c-2.6-1.4-5.2-2.6-8-3.5
		c-1.1-0.5-2.1-1-3.2-1.5c-1.4-1.2-3.2-1.7-4.8-2.5c-2.6-1.6-5.3-3.1-7.9-4.7c-0.4-0.5-0.9-0.8-1.5-0.9c-2-1.9-4.3-3.3-6.6-4.8
		c-1.3-1-2.7-2.1-4-3.1c-1-1.5-2.6-2.4-4-3.4c-1.7-1.5-3.4-3-5-4.6c-0.8-1.2-1.8-2.1-2.9-3c-1.6-1.7-3.2-3.4-4.8-5.1
		c-0.9-1.4-1.8-2.8-3.2-3.9c-0.8-1.5-1.9-2.7-3-4c-1.7-2.5-3.3-4.9-5-7.4c-0.1-0.2-0.3-0.4-0.4-0.6c-1.5-2.7-3.1-5.3-4.6-8
		C63.8,273.1,62.7,271.2,61.6,269.4z"/>
	<path class="st0" d="M166.9,23.3c2.1-1.2,4.5-0.1,6.6-0.7c2.7,0.3,5.4,0.3,8,0c2.7,0.3,5.3,0.3,8,0c2.7,0.3,5.4,0.3,8,0
		c0.2,0,0.5,0.1,0.7,0.1c4.5,0.2,4.5,0.2,5.1,4.5c-0.4,2.7-0.4,5.4,0,8.1c-0.3,2.6-0.3,5.3,0,7.9c-0.4,2.7-0.4,5.4,0,8.1
		c-0.3,2.6-0.3,5.3,0,7.9c-0.4,2.7-0.4,5.4,0,8.1c-0.4,2.6-0.3,5.3,0,7.9c-0.4,2.7-0.4,5.4,0,8.1c-0.3,2.6-0.3,5.3,0,7.9
		c-0.4,2.7-0.4,5.4,0,8.1c-0.3,2.6-0.3,5.3,0,7.9c-0.4,2.7-0.4,5.4,0,8.1c-0.3,2.6-0.3,5.3,0,7.9c-0.4,2.7-0.4,5.4,0,8.1
		c-0.4,2.6-0.3,5.3,0,7.9c-0.4,2.7-0.4,5.4,0,8.1c-0.3,2.6-0.3,5.3,0,7.9c-0.4,2.7-0.4,5.4,0,8.1c-0.3,2.6-0.3,5.3,0,7.9
		c-0.4,2.7-0.4,5.4,0,8.1c-0.3,2.6-0.3,5.3,0,7.9c-0.4,2.7-0.4,5.4,0,8.1c-0.3,2.6-0.4,5.3,0,7.9c-0.3,2.7-0.5,5.4,0.7,8.1
		c-0.3,1.9,0.5,3.5,1.4,5c0,1.2,0.5,2.2,1.3,3c1.4,3.2,3.5,5.8,6.7,7.5c0.2,0.2,0.4,0.3,0.6,0.5c2.2,1.6,4.6,2.9,7.4,3.1
		c2.6,1.1,5.3,1.1,8,1.3c1.7,0.6,2.7,1.5,2.2,3.5c-1.5,2.1-2.1,4.6-3.4,6.9c-1.6,3-3.3,5.9-4.4,9.1c-2,2.7-2.9,6-4.5,8.9
		c-1.3,2.4-3,3.9-5.9,3.8c-2.7-0.5-5.4-1-8-1.5c-2.7-1-5.3-2-8-3.1c-0.1-0.1-0.2-0.1-0.3-0.1c-2.6-1.6-5.1-3.3-7.7-4.9
		c-1.1-1.2-2.3-2.2-3.6-3c-1.3-1.7-2.8-3.1-4.4-4.5c-1-1.2-1.9-2.4-2.9-3.6c-1.7-2.7-3.4-5.3-5.1-8c-1.2-2.7-2.4-5.3-3.6-8
		c-0.7-2.7-1.4-5.5-2-8.2c-1.7-7.8-1-15.8-1-23.6c-0.1-29.4,0-58.8,0-88.2C166.9,79.2,166.9,51.3,166.9,23.3z"/>
</g>
</svg>
